<?xml version="1.0" encoding="UTF-8"?>
<svg width="24px" height="24px" viewBox="0 0 24 24" stroke-width="1.5" fill="none" xmlns="http://www.w3.org/2000/svg" color="#000000">
  <path d="M12 8.5V3M12 8.5L7 11.5M12 8.5L17 11.5" stroke="#000000" stroke-width="1.5" stroke-linecap="round" stroke-linejoin="round"></path>
  <path d="M17 11.5V16.5M7 11.5V16.5M12 8.5V16.5M7 16.5L12 19.5M12 19.5L17 16.5M12 19.5V21M7 16.5H17" stroke="#000000" stroke-width="1.5" stroke-linecap="round" stroke-linejoin="round"></path>
  <path d="M12 3C13.1046 3 14 2.10457 14 1C14 1 11.9998 1 12 1C12.0002 1 10 1 10 1C10 2.10457 10.8954 3 12 3Z" stroke="#000000" stroke-width="1.5" stroke-linecap="round" stroke-linejoin="round"></path>
</svg>